/* XPM */
static char *result[] = {
/* columns rows colors chars-per-pixel */
"46 46 143 2 ",
"   c #5C2004",
".  c #5E2304",
"X  c #602404",
"o  c #612404",
"O  c #602504",
"+  c #612504",
"@  c #612604",
"#  c #622604",
"$  c #622704",
"%  c #632704",
"&  c #642704",
"*  c #632804",
"=  c #642804",
"-  c #652804",
";  c #642904",
":  c #652904",
">  c #662804",
",  c #672904",
"<  c #652A04",
"1  c #662A04",
"2  c #672A04",
"3  c #672B04",
"4  c #682A04",
"5  c #692A04",
"6  c #682B04",
"7  c #692B04",
"8  c #6A2B04",
"9  c #682C04",
"0  c #692C04",
"q  c #692D04",
"w  c #6A2C04",
"e  c #6B2C04",
"r  c #6A2D04",
"t  c #6B2D04",
"y  c #6B2E04",
"u  c #6B2F04",
"i  c #6C2D04",
"p  c #6D2D04",
"a  c #6E2D04",
"s  c #6C2E04",
"d  c #6D2E04",
"f  c #6C2F04",
"g  c #6D2F04",
"h  c #6E2E04",
"j  c #6F2E04",
"k  c #6E2F04",
"l  c #6F2F04",
"z  c #702F04",
"x  c #6C3004",
"c  c #6D3004",
"v  c #6D3104",
"b  c #6E3004",
"n  c #6F3004",
"m  c #6E3104",
"M  c #6F3104",
"N  c #6F3204",
"B  c #703004",
"V  c #713004",
"C  c #703104",
"Z  c #713104",
"A  c #723104",
"S  c #703204",
"D  c #713204",
"F  c #703304",
"G  c #713304",
"H  c #723204",
"J  c #733204",
"K  c #723304",
"L  c #733304",
"P  c #743304",
"I  c #713404",
"U  c #723404",
"Y  c #733404",
"T  c #723504",
"R  c #733504",
"E  c #743404",
"W  c #753404",
"Q  c #743504",
"!  c #753504",
"~  c #743604",
"^  c #753604",
"/  c #743704",
"(  c #753704",
")  c #763604",
"_  c #773604",
"`  c #763704",
"'  c #773704",
"]  c #783704",
"[  c #753804",
"{  c #763804",
"}  c #773804",
"|  c #773904",
" . c #783804",
".. c #793804",
"X. c #783904",
"o. c #793904",
"O. c #7A3904",
"+. c #783A04",
"@. c #793A04",
"#. c #793B04",
"$. c #7A3A04",
"%. c #7B3A04",
"&. c #7A3B04",
"*. c #7B3B04",
"=. c #7C3B04",
"-. c #7A3C04",
";. c #7B3C04",
":. c #7B3D04",
">. c #7C3C04",
",. c #7D3C04",
"<. c #7C3D04",
"1. c #7D3D04",
"2. c #7E3C04",
"3. c #7E3D04",
"4. c #7D3E04",
"5. c #7E3E04",
"6. c #7F3E04",
"7. c #7E3F04",
"8. c #7F3F04",
"9. c #7F4004",
"0. c #803F04",
"q. c #813F04",
"w. c #804004",
"e. c #814004",
"r. c #814104",
"t. c #824004",
"y. c #834004",
"u. c #824104",
"i. c #824204",
"p. c #834204",
"a. c #834304",
"s. c #844204",
"d. c #854304",
"f. c #864304",
"g. c #854404",
"h. c #864404",
"j. c #874404",
"k. c #874504",
"l. c #884604",
"z. c #894604",
"x. c #8B4704",
"c. c #8C4804",
"v. c #8D4904",
/* pixels */
" . . . . . . . . .' ' >.r.i. .8 + @.0. . . . .' ' ' ' 5.p.r.E a Z ' o. . .o.) B ) o. .Z l l ",
" . . . . . .' ' $.1.5.1.*.X.H n ( &.*. .' '  .1.6.5.6.( N F Y H l H H L  .o.) B H E E E ! Q ",
" . . . . . .$.o.>.8.7.$.E l B } w.$.)  .$.$.$.;.:.:.<.m & 9 } o.L L L Y ) ' ! B l l B ' o.o.",
" . . . .' $.w.r.5. .H B B l $.8. . .'  .8.i.5.q % = = S %.8.w.w.w.w.w.1.Z z B B B l B ' o. .",
" .>.8.8.5.w.r.o.K l p B L h *.a.8.8.0.6.R v u X v | S @.e.u.u.8.*.*.8.8.' Z B ! ) L l H ) o.",
"! o.1.>.>.>.;.L L ....2.3.L ^ +.+.@.&.+.: % f f @.0.O.>.8.5.5.*.' ) >.w.' L E o.o.' H l H ) ",
"B B B B B l B E e.v.c.v.z.%.y # = = = * @ T u.r.>.'  . . . . . . .' 1.5.Z E o. . . . .H l B ",
") H h l l l B Y t.c.q.,.,. .@.-.&.` t # | 1.$.*.o. . . . . . .'  .8.$.L ^ '  . . . . .` ) ) ",
"o.) L E E H B ' s.x.O.Q ` ' >.8.6.6.} f ( &.*.' '  . . . . .' $.,.;.) L  .o. . . . . . .o.o.",
" . . . . .! B ;.k.x.>.'  . . .' ' 5.8. .- N w.$. .o. . . . . .>.5.Z H  .' ' ' '  . . . . . .",
"o.o.' B B l l >.l.v.r.@.'  . . . . .1.8.9 2 ! 7.r.5. .' ' ' 0.+.9 d z B B B B B ) o.o. . . .",
"E L E  .X.X.X.' >.s.l.p.;.o. . . . .o. .s 8 l ' o.$.1.5.5.3.>.N # ^ o. .X.X.X.X.! H L ' o. .",
"B B ) r.r.r.r.E n ' j.d.<.' ) ` ' ' E B A L L H l Z <.4.4.<.H > 1 4.p.r.w.w.w.w.` Z K ) ' ' ",
") *.w.r.*.*.w.$.L B H H Z l l l B l L  .' *.w.w.' e : = : 3 : % 3 4.a.8.o. .o.o.1.w.8.L j B ",
"5.w.w.>. .$.r.8.$.L k p P y.f.e.o.! !  . .$.>.>.>.@.( | I + + @ * x R o.5.$.) ' &.>.>.*.$.&.",
"8.8.>.' ' $.5.r.8.$.E d D s.j.h.g.5.o. . . .' ' *.e.i.w.( 2 6 r 0 2 2 l >.>.$.$. .'  .5.w.8.",
" . . . . . . .5.r.8.%.b # : + G c.g.<. . . . . .' $.e.N - B )  . .o.b = h *.r.w.$.'  . . . .",
"5.5.5.5.5.5.5.w.r.w.*.' S # . ; F X.3.8.o.' ' ' >.5.^ 1 2 '  .o...o.^ K ! E  .r.r.>.' '  . .",
"5.5.5.5.5.5.5.5.5.1.Y G G f y r 3 C  .;.;.*.*.*.>.@.H w s _  . . . .o.o.o.E L &.;.>.*. .'  .",
"' ' ' ' ' ' ' '  .^ 3 @ 6 ' o.o.o.L j Z 1.r.w.r.' B  .E l l ^  . . . . . .o.) B a ) w.$. . .",
"B B B B B B Z H g 0 R ` )  . . . .' ' ' L H L Y ! '  . .G : k ) O.O.o. . . . .) Z B ! 5.r.w.",
"} } } }  .) K B 4 + g S G  .o. . .) E ! ` ! Z h E O. .o.Q 7 7 s M m K ) ..o.o.O.' B 7 T [ / ",
"w.w.w.w.e.5.o.W k 3 3 ; 6 Q  . .' H l Z 7.8. .Z L  . .o.) l 2 * = % 7 B ^ ` ) ) } D = % % % ",
"o.o.o.o. .*.w.8.7.4.5.&.Y 2 U  .B E ) ' 8.i.5.Z h L  .O.Y : i l l l w = 1 1 1 1 : 0 l l k k ",
"] ] ' ] ' o.>.<.,.1.r.8.) = 1 b L *.5.1.>.>.>.$.L Z  .$.K % d Z V Z d w w w w w 7 i Z V V V ",
" . . . . . .' ' '  .w.>.S - ; m $.5.w.8.o.)  .r.X.B ) o.Y = s V B B B Z Z Z Z Z Z V B B B B ",
" . . . . . . . .'  .r./ + + ( r.w.*. . . .' o.w. .j B ] R = i V B B B B B B B B B B B B B B ",
"' ' ' ' ' @.8.8.w.5.I m U { &.*.&. .' ' ' $.8.p.O.d 6 r 0 = K E B B B B B B B B B B B B B B ",
"*.*.*.*.*.*.>.#.#.| $ s ,.p.5.@.$.*.*.*.*.>.>.#.K 7 $ + + % ^ ' l B B B B B B B B B B B B B ",
"w.w.w.w.r.>.B 2 % = % b $.8.w.w.w.w.w.w.r.$.d : * = = = = : Q ) B B B B B B B B B B B B B B ",
"*.' K L H ) 1.;.&.&.<.I : 9 D Y u u u u K ! ! K G Q &.;.-.&.L L ) Z l l B B B B B B B l L ) ",
"L ! ) ) ! X.5.8.8.6.0.} v N B i > - - 2 l ' 1.1.1.1.6.6.w.i.) H ! E E L B l B B B B B l E O.",
"B $.r.w.r.5.' ' '  .' 1.i.w.) l H H Z Z ) 1.r.w.w.5. ._ $.8.*.! Z '  .) Z B Z Z Z Z Z B E  .",
"7.>.o.o.$.o. . .'  .5.u.4.u 8 L 4.8.X.j ) 5.r.$.o.o. . . .o.5.w.1.L 5 3 !  . . . . . ...! B ",
"1.$.' ' '  . .' @.1.1.5.@.+ g >.r.i.7. .Y ! o.>.o.'  . . .] *.1.1.$.~ ~ 1.~ s c b m m c D E ",
"'  . . . . . .X.>.8.o.) K 0 +.i.8.7.w.r.) h B 5.1.o. . . . .' '  .8.r.e.w.U < 9 : & = = b  .",
" . . . . . . .5.5. .$.c 3 <.r.8.o. .;.r.r. .l ' 5.8. .'  . . . . .o.X. . .>.9.8.E p l ) ! B ",
" . . . .' o.5.3.=.] s m +.r.8.$. .' o.*.>.;.o.E  .1.5.5.>.' ' ' ' _ $.5.5.5.=.} ) ! ) ! H l ",
" . . . .o.,.8.^ K K r | p.8.$.'  . . .' ) 1.w.n B  .<.8.5.$.$.*.*.$.1.8.1.X.L Z ' o.) Z l B ",
" . . . .5.8. .0 O 1 <.i.8.o. . . . . . .' 1.5.3 7 Z B ! *.w.w.w.w.r.1.) Z l H  .o.! B B B B ",
"0.0.w.w.R 3 6 ~ #.@.*.*.$. . . .' ' '  .1.i.7.1 o , p z L ^ S c v x M J ^ ) ! L L D B B B B ",
"+.| | X.F u m 5.p.5.o.' '  . . .*.*.*.*.;.>.X.g u F ) ' E a & X # & i E ) ' E l l B B B B B ",
"% = = % | p.w.w.<.'  . . . . .$.w.w.w.8.L h Z ' 5.r.w.r.>.B 2 % : k ) } B l B B B B B B B B ",
"X I ;.Q  .%.$.$.o. . . . .' *.w.r. .K L h ! 5.8.1.$.$.$.*.1.K 4 : E o. .Z l B B B l B !  . .",
"s &.u.O. .' ' '  . . . .X.*.8.8.@.D l L ) <.r.5.$.' ' _ *.r.) 7 : )  .Y B B B B B Z E  .! b ",
"..3.8. . . . . . . . .' o.w.i.>.l h L o.8.u.8. .'  . .' *.w.! 7 : ) ! l B B B B l L o.$.c   "
};
