/* XPM */
static char *result[] = {
/* columns rows colors chars-per-pixel */
"29 43 35 1 ",
"  c black",
". c #180000",
"X c gray8",
"o c #2C0000",
"O c #241400",
"+ c #183400",
"@ c #282828",
"# c #440400",
"$ c #5C0400",
"% c #7C0000",
"& c #443434",
"* c #1C4000",
"= c #244C00",
"- c #285800",
"; c #306404",
": c #347004",
"> c gray25",
", c #4C4C4C",
"< c #544440",
"1 c #585858",
"2 c #685450",
"3 c #6C6C6C",
"4 c gray47",
"5 c #A40000",
"6 c #8C7870",
"7 c #3C8008",
"8 c #4C8810",
"9 c #5C9414",
"0 c #6CA018",
"q c #7CAC20",
"w c #A88C10",
"e c #90B828",
"r c #9C8880",
"t c gray61",
"y c None",
/* pixels */
"yyyyyyyyyyyyyyyyyyyyyyyyyyyyy",
"yyyyyyyyyyyyyyyyyyyyyyyyyyyyy",
"yyyyyyyyyyyyyyyyyyyyyyyyyyyyy",
"yyyyyyyyyyyyyyyyyyyyyyyyyyyyy",
"yyyyyyyyyyyyyyyyyO*+yyyyyyyyy",
"yyyyyyyyyyyyyyyX###8;yyyyyyyy",
"yyyyyyyyyyyyyyX#$%%7;+yyyyyyy",
"yyyyyyyyyyyyyX#$%5%-*;;=yyyyy",
"yyyyyyyyyyyyy#$$55%*9099:=yyy",
"yyyyyyyyyyyy.#$%55%80ee08<*yy",
"yyyyyyyyyyyyX#$%%%%79qeqq2*;=",
"yyyyyyyyyyyyX#$%5%%;e7800+w98",
"yyyyyyyyyyyyX#$%55%:=e=83*:q0",
"yyyyyyyyyyo#<#$%555%;8;$#y+*8",
"yyyyyyyyyo#<&#$%5555%%%$#yyy+",
"yyyyyyyyy#%6&#$$%555%%%$#yyyy",
"yyyyyyyyy#%r2#$$%%%%%%%$#yyyy",
"yyyyyyyyy#$26##--::-$%%$#yyyy",
"yyyyyyyy+*$<r*-::797-$$#yyyyy",
"yyyyyyyy=*$%<=:800e9-$#yyyyyy",
"yyyy+==;7*$$*-:78007+#yyyyyyy",
"yyy+=8887***;:;:78:+*yyyyyyyy",
"yyy+89qq;*;87:77:=+-yyyyyyyyy",
"yyyy;888*>9097:;=;8;=yyyyyyyy",
"yyyy+=;*>1;888**-778;yyyyyyyy",
"yyyy=88>4t1;8: *=;:7:yyyyyyyy",
"yyyy;88,t4>>**  +*;78*yyyyyyy",
"yyyy*;7;,>@O .   +=89;yyyyyyy",
"yyyyy+*+.        =:887yyyyyyy",
"yyyyyyyy         +;887;8:7:*y",
"yyyyyyyyy         *;::899:=-+",
"yyyyyyyyyyyyyyyy   *;;8e9079+",
"yyyyyyyyyyyyyyyyy  *:79e078;y",
"yyyyyyyyyyyyyyyyyy  +=7870;yy",
"yyyyyyyyyyyyyyyyyyy   +**+yyy",
"yyyyyyyyyyyyyyyyyyyyyyyyyyyyy",
"yyyyyyyyyyyyyyyyyyyyyyyyyyyyy",
"yyyyyyyyyyyyyyyyyyyyyyyyyyyyy",
"yyyyyyyyyyyyyyyyyyyyyyyyyyyyy",
"yyyyyyyyyyyyyyyyyyyyyyyyyyyyy",
"yyyyyyyyyyyyyyyyyyyyyyyyyyyyy",
"yyyyyyyyyyyyyyyyyyyyyyyyyyyyy",
"yyyyyyyyyyyyyyyyyyyyyyyyyyyyy"
};
