/* XPM */
static char *result[] = {
/* columns rows colors chars-per-pixel */
"29 44 28 1 ",
"  c black",
". c gray8",
"X c #183400",
"o c #343434",
"O c #440400",
"+ c #5C0400",
"@ c #7C0000",
"# c #443434",
"$ c #1C4000",
"% c #244C00",
"& c #285800",
"* c #306404",
"= c #347004",
"- c gray25",
"; c #544440",
": c #585858",
"> c #685450",
", c #6C6C6C",
"< c #A40000",
"1 c #8C7870",
"2 c #3C8008",
"3 c #4C8810",
"4 c #5C9414",
"5 c #6CA018",
"6 c #7CAC20",
"7 c #90B828",
"8 c gray61",
"9 c None",
/* pixels */
"99999999999999999999999999999",
"99999999999999999999999999999",
"99999999999999999999999999999",
"99999999999999999999999999999",
"99999999999999999999999999999",
"99999999999999999.X9999999999",
"999999999999999.OOO3999999999",
"99999999999999.O+++2*99999999",
"99999999999999O+@@@&$**%99999",
"9999999999999.O@<<@$4544=9999",
"9999999999999O+@<<@3577539999",
"9999999999999O+@<<@2467669999",
"999999999999.O+@@@@*72355X999",
"999999999999.O+@<@@=%7%3,9999",
"999999999999.O+@<<<@*3*+O9999",
"99999999999+.O+@<<<<@@@+O9999",
"9999999999+#.O+@@<<<@@@+O9999",
"999999999O@>#OO+@<<<@@@+O9999",
"999999999O+1>OO++@@@@@@+O9999",
"999999999O@;1OOO+&==+@@+O9999",
"999999999O@+>#O$&242&++O99999",
"999999999O@@;;$&25763&O999999",
"999999999O+@+#X=33342&9999999",
"999999999OO+@#X=2222=99999999",
"9999999999OOOOX*=*==&99999999",
"9999999999$O++$&*=23999999999",
"9999999999  $O$**=*=$99999999",
"9999999999 X*$$%*355*$9999999",
"999999999   X*&$*333=$9999999",
"999999999   X23$=234:o9999999",
"999999999   X353o-:8,-o999999",
"99999999   X%*33=o-,8:*999999",
"99999999  X&2$**=Xo-:3*999999",
"999999999 X23=&34*$o32X999999",
"999999999 X2323344X*22$999999",
"999999999  X=354553XX 9999999",
"99999999999 .*4475X  99999999",
"999999999999  %24*  999999999",
"99999999999999999999999999999",
"99999999999999999999999999999",
"99999999999999999999999999999",
"99999999999999999999999999999",
"99999999999999999999999999999",
"99999999999999999999999999999"
};
