/* XPM */
static char *result[] = {
/* columns rows colors chars-per-pixel */
"29 32 36 1 ",
"  c black",
". c gray8",
"X c #241400",
"o c #2C1800",
"O c #342000",
"+ c #3C2404",
"@ c #282828",
"# c #343434",
"$ c #482C04",
"% c #503008",
"& c #443434",
"* c #644014",
"= c #78581C",
"- c gray25",
"; c #4C4C4C",
": c #544440",
"> c #585858",
", c #685450",
"< c #646464",
"1 c #6C6C6C",
"2 c #786460",
"3 c gray47",
"4 c #880000",
"5 c #B80000",
"6 c #8C7870",
"7 c #FCB438",
"8 c #A89440",
"9 c #FCF458",
"0 c #848484",
"q c #9C8880",
"w c #909090",
"e c gray61",
"r c #B09C90",
"t c #B4B4B4",
"y c gray80",
"u c None",
/* pixels */
"uuuuuuuuuuuuO..Ouuuuuuuuuuuuu",
"uuuuuuuuuuuo....ouuuuuuuuuuuu",
"uuuuuuuuuuuO....Ouuuuuuuuuuuu",
"uuuuuuuuooO+....+Ooouuuuuuuuu",
"uuuuuuuo$*8%O;;O%8*$ouuuuuuuu",
"uuuuuuX+*=*%;33;%*=*+Xuuuuuuu",
"uuuuu++$**@O3113O@**$++uuuuuu",
"uuuuuX$$$$@;3<<3;@$$$$Xuuuuuu",
"uuuu X+o$$@3<>><3@$$o+X uuuuu",
"uuu +XX$@&31>;;>13&@$XX+ uuuu",
"uuu Xo+$3e3>1--1>3e3$+oX uuuu",
"uu  O$@1@@e<####<e@@1@$O  uuu",
"uu +OO1eet@11##11@tee1OO+ uuu",
"uu XX1##ee3>>@@>>3ee##1XX uuu",
"u  XO$001w11;@@;11w100$OX  uu",
"u  X$30;-;<1-@@-1<;-;03$X  uu",
"u  o$;>ee;-#@@@@#-;ee>;$o  uu",
"   O$$e3@1e1>@@>1e1@3e$$O   u",
"   O$0w.1e11e##e11e1.w0$O   u",
"   O;3>1t01ee;;ee10t1>3;O   u",
"   o>1.we11te11et11ew.1>o   u",
"   o&1.e0&1et11te1&0e.1&o   u",
"   OO$ 0:.4.1##1.4.:0 $OO   u",
"    oO .:.45.##.54.:. Oo    u",
"u   oo .&:..&&&&..:&. oo   uu",
"u   OX ..2222::2222.. XO   uu",
"uu     ..&:rq,,qr:&..     uuu",
"uuu  @ @..r.q22q.r..@ @  uuuu",
"uuuu ; ;.3.7.66.7.3.; ; uuuuu",
"uuuuu    3y7*..*7y3    uuuuuu",
"uuuuuuu  yy 7997 yy  uuuuuuuu",
"uuuuuuuuuuuu    uuuuuuuuuuuuu"
};
