/* XPM */
static char *result[] = {
/* columns rows colors chars-per-pixel */
"46 45 233 2 ",
"   c #010101",
".  c #0A0301",
"X  c #1C0200",
"o  c #140804",
"O  c #1E1900",
"+  c #191A19",
"@  c #030C17",
"#  c #240200",
"$  c #2B0300",
"%  c #240E00",
"&  c #2A0C00",
"*  c #25020F",
"=  c #330200",
"-  c #380702",
";  c #261402",
":  c #2B1300",
">  c #2C1A01",
",  c #251907",
"<  c #321400",
"1  c #331D01",
"2  c #3A1D00",
"3  c #371708",
"4  c #281B15",
"5  c #3A1718",
"6  c #1D3A01",
"7  c #1D2000",
"8  c #2E2303",
"9  c #272800",
"0  c #342202",
"q  c #3B2303",
"w  c #332B02",
"e  c #3D2C03",
"r  c #35230C",
"t  c #3B230A",
"y  c #3F290A",
"u  c #263902",
"i  c #383805",
"p  c #2B221C",
"a  c #22201F",
"s  c #382818",
"d  c #3F381C",
"f  c #151E2D",
"g  c #1B2227",
"h  c #242323",
"j  c #2B2A29",
"k  c #352B26",
"l  c #3C322C",
"z  c #3C3D3D",
"x  c #383635",
"c  c #2B373E",
"v  c #470502",
"b  c #580100",
"n  c #431B00",
"m  c #481502",
"M  c #591402",
"N  c #5C1311",
"B  c #760000",
"V  c #6B140B",
"C  c #422402",
"Z  c #4B2500",
"A  c #442A03",
"S  c #4B2C03",
"D  c #432A0A",
"F  c #4C2C0C",
"G  c #502D04",
"H  c #5B2A01",
"J  c #572704",
"K  c #493305",
"L  c #533303",
"P  c #5B3502",
"I  c #5C3A01",
"U  c #53340B",
"Y  c #5C3B0C",
"T  c #563909",
"R  c #462D17",
"E  c #493219",
"W  c #5C3C13",
"Q  c #543815",
"!  c #633D01",
"~  c #623C0B",
"^  c #623E13",
"/  c #613612",
"(  c #481F21",
")  c #452D24",
"_  c #4B3B2A",
"`  c #473426",
"'  c #573E27",
"]  c #463D38",
"[  c #592F2E",
"{  c #753737",
"}  c #643C3C",
"|  c #0B4C01",
" . c #244A01",
".. c #2D4D02",
"X. c #2C4503",
"o. c #364604",
"O. c #2A5901",
"+. c #355603",
"@. c #1B6004",
"#. c #2C6103",
"$. c #484703",
"%. c #574704",
"&. c #4B5703",
"*. c #5D4112",
"=. c #5C401B",
"-. c #525401",
";. c #654202",
":. c #694302",
">. c #6D4902",
",. c #63410D",
"<. c #6C470E",
"1. c #724D07",
"2. c #795406",
"3. c #654414",
"4. c #694514",
"5. c #6B4A15",
"6. c #6C4C19",
"7. c #684718",
"8. c #714E1A",
"9. c #724E13",
"0. c #6E511A",
"q. c #735314",
"w. c #795513",
"e. c #73531C",
"r. c #79561C",
"t. c #7B5A1E",
"y. c #7F5B16",
"u. c #5D442B",
"i. c #47413D",
"p. c #55463A",
"a. c #684B26",
"s. c #6E5128",
"d. c #735222",
"f. c #7C5C22",
"g. c #795923",
"h. c #624B37",
"j. c #704F23",
"k. c #7E6123",
"l. c #77603A",
"z. c #3C4346",
"x. c #3E5F6D",
"c. c #434445",
"v. c #494643",
"b. c #4B4C4C",
"n. c #484949",
"m. c #554C48",
"M. c #5B514B",
"N. c #494A51",
"B. c #4F5153",
"V. c #535353",
"C. c #5C5B5B",
"Z. c #585857",
"A. c #64564D",
"S. c #675A56",
"D. c #6F5151",
"F. c #62605E",
"G. c #77685E",
"H. c #5E6162",
"J. c #5D666F",
"K. c #566670",
"L. c #636363",
"P. c #656A6B",
"I. c #6B6C6C",
"U. c #696665",
"Y. c #736A68",
"T. c #74716E",
"R. c #6C6E72",
"E. c #646973",
"W. c #6C7475",
"Q. c #747575",
"!. c #7A7A7B",
"~. c #787777",
"^. c #960000",
"/. c #9C0000",
"(. c #A40000",
"). c #8E3535",
"_. c #835E1A",
"`. c #86631C",
"'. c #815D23",
"]. c #835E2B",
"[. c #836324",
"{. c #8B6A26",
"}. c #866629",
"|. c #896529",
" X c #8B6D2B",
".X c #886827",
"XX c #8D722D",
"oX c #92732D",
"OX c #96772B",
"+X c #896835",
"@X c #8E7533",
"#X c #937632",
"$X c #967A32",
"%X c #9C7D33",
"&X c #99793B",
"*X c #906F2D",
"=X c #A17F32",
"-X c #95494C",
";X c #9F7D45",
":X c #A17E4A",
">X c #837A6B",
",X c #847A7A",
"<X c #9E8305",
"1X c #A88B08",
"2X c #B49F16",
"3X c #BCA704",
"4X c #BEAF16",
"5X c #9D8438",
"6X c #A38A3C",
"7X c #A28537",
"8X c #A0802E",
"9X c #BAA538",
"0X c #C8B81A",
"qX c #CEBC33",
"wX c #D5C518",
"eX c #D6C62B",
"rX c #A98748",
"tX c #B0964B",
"yX c #82807A",
"uX c #BC9861",
"iX c #E1D743",
"pX c #7E8386",
"aX c #7E8E96",
"sX c #848484",
"dX c #8C8B8A",
"fX c #858888",
"gX c #8A9298",
"hX c #969595",
"jX c #8E8F90",
"kX c #959DA3",
"lX c #8798A1",
"zX c #96A1A9",
"xX c None",
/* pixels */
"xXxXxXxXxXxXxXxXxXxXxXxXxXxXxXxX  xX      xX: U 6.t.|.|.r.8.U xXxXxXxXxXxXxXxXxXxXxXxXxXxXxX",
"xXxXxXxXxXxXxXxXxXxXxXxXxXxX    xXxXxXxXxXL '.|.|.|.|.|.|.'.'..X^ xXxXxXxXxXxXxXxXxXxXxXxXxX",
"xXxXxXxXxXxXxXxXxXxXxXxX    xXxXo .     T {.|.'.'.|.|.].g.g.oX[.'.^ xXxXxXxXxXxXxXxXxXxXxXxX",
"xXxXxXxXxXxXxXxXxXxXxX  xXxXxX. xXxX; Y *X Xf.].'. X|.f.8.|. X|.f. X3.xXxXxXxXxXxXxXxXxXxXxX",
"xXxXxXxXxXxXxXxXxXxXxXo xXxX@ E 5.6.<.*.g.3.|.7.}.}.'.e.6Xe.'.#X}.*X[.Z xXxXxXxXxXxXxXxXxXxX",
"xXxXxXxXxXxXxXxX4 > xXxXxXs xX; 3.r.e.{.g.k. X6.}.*Xg.#X5X8.r.'.g.'.#Xd.5.# xXxXxXxXxXxXxXxX",
"xXxXxXxX    . xXo E S Q 7.<.q xX  q 3.rX'.XX%X'.3.4.+X@X7.'. X XI #XrXd.[.%X0.xXxXxXxXxXxXxX",
"xXxX    xX  xX. C L 5.e.f.0.5.*.5.U S ;X&Xe.}.7.f.*X9.g.#X|.}. X+X+Xg.Y *.e.%X X,.xXxXxXxXxX",
"    xXxX  xXr L W ^ 8.f.oXk.f.'.e.A Q _.:X&Xr.5.}.@Xd.g.XX8.! [.uXrX`.0.q # C W 6.*.xXxXxXxX",
"xXxX    xXf s L U W 5.g.oX X5.7.Y 2 e..X'.#X#XrX.X].d.g.}.;XuXrXOXOX$X[.Y A q ; xXxXxXxXxXxX",
"  xXxXxX. h xX0 U 5.3.e.e. X[.e.7.D XXt.U G 6.}..XtX:X&XuX&X|.! Z g. X%Xe.; 0 xXxXxXxXxXxXxX",
"xX    xXxXxXxXq 7.7.G k.e.5..XXX*.e. XC ; 2 2 U f.`.[.|.t.Z ] U.V.X S oXXX- xXxXxXxXxXxXxXxX",
"  xXxX    xX  U ^ U G [.g.[.f.#Xk.U *.1 q L F C e.5X7XoX*.4 hXhXm.hX] C  XXX- xXxXxXxXxXxXxX",
"xXxXxX  xX  4 Q S L L [.[.t.:.! ;.D > 1 A U S F e.rX7X1.] ~.C.yX:.dXV.; S 5X$X= xXxXxXxXxXxX",
"xXxXxX  xX+ + 4 s j ` [.r.E Z.fXJ.g ; q A U L T [.6XoXt F.fXh..X9X2.~.Z.X F $X#X*.xXxXxXxXxX",
"xXxXxX    xXxX+ j z.z 3.W I.dXzXaXc ; t A U S q.tX6X6.S L.I. X%X1X3XA.z < r C .X Xe.U xXxXxX",
"xXxXxX  xX  xX+ j z B.z B G.fXhXaXK.O r A A 5.6XtX XT 2 sXdX2X3X2XeXY.b.& 0 0 2 7.[.f.e.xXxX",
"xXxXxXxX  xX+ a j z B.z.S./.D.hXlX-X- r 2 0.oX X$X0.C > v.f 0X0XwXiX} ] 2 Q Z S q q U 9.T xX",
"xXxXxXxX  xX+ a j l b D.P.,X).^.(.^.b 8 Q [.U e.XXS D % Q.E.4XwXwX9X{.q.~ 1.{.A.8.2.{.k.xXxX",
"xXxXxXxXxXxX@ a x l N S.R.W.-X^.{ J.N.n g.U < XXe.q 0 X pXE.3XqX9X6XOXoXg.OX9XI.' `.6XxXxXxX",
"xXxXxXxXxX0 s 5 k ] N.Z.F.).(.{ aXlXK.L W X 0.e.C 0 C C ] l.OX7X5X#Xk.[.1.OX;Xz.6.=X$XxXxXxX",
"xXxXxXxXxXY 7.= v 5 ` [ ^.(.{ pXkXkXB.R q Q e.q C S Q 7.! 9. XoXoX[.t.e.;._ z.* I w. XxXxXxX",
"xXxXxXD I :.G s - b b B V Y.!.fXhX!.k S Q e.U S 3.8.;.! a.s.:.}.[.5.7.^ T s D 1X6Xs.W 5.xXxX",
"xX6.I W w.5.7.R p ( [ S.H.Q.~.~.R.c r S ;.n ! w.5.L m.p.c.T.;.^ ^ U S A A > %.1X>XP.i.:.W xX",
"xXXX{.L 7.2.q.7.S s z n.V.B.V.n.l Q T u.Y.~.M.I L m.!.U.D g R i H m 1 1 - q 1 F ] b.` >.2.xX",
"xXxX#X.X7.,.I 3.~ I U G L T L ^ ,.>.:.x P.jXfXS.C T.R.z 0 b Z &.+.w & O L M 0 q 0 q p.S.a.9.",
"xXxXxX[.G 3.^ ^ ~ ! 4.4.3.j.8.;._ C.p.A k Z.sXI.l v.z p 1 T &.H 1 9 , O.O.i q 0 r < S.W.m.y.",
"xXxX8.{..Xr.e.6.5.P ^ e.;.H H E I.!.n.i.p.x v.b.p 9 K Z U o.9 # O = X.$.C w < 0 0 4 # . :.xX",
"xXxX{.5X7X.XU U 6.<.W ;.h.T.M.p.Q.V.r H.!.v.o v %.#.+.o.q % 9  .6 e A < $ : 1 1 < - M.S.h.xX",
"xXxXxXxXxXxX[.:.H W 5._ L.Q.V.` c.d 0 * 5 3 9 m &.O.v 0 O b &.+.u q : u O.u s 1 m.Q.dXpXZ.xX",
"xXxXxXxXxX1.a.u.E I P l z o % 2 1 < m o.K C o.2 & 0 9 H C A o.- v : & #.o.3 $ , R.fXI.c.R xX",
"xXxXxXxX9.<.n.H.V._ B.l & t 1 > 1 m H @.o.e w +.X.C ..6 D q % 6 -...s E = Y.Q.p.i.z j r `.xX",
"xXxXxXxXD C ] I.~.c.z l 1 8 v  .%.M ....= q O... .X.0 1 0 ; M  .X.u $ $ > S.gX~.V.=.~ [.oXxX",
"xXxXxXxXxXT p b.U.z & 0 w M %.| X.w $ $ m %. .n > v v 8 1 2 y i n 2 G.Y.x v.v.Z.B.W 6.%XxXxX",
"xXxXxXn ;.<.U O k p 0 D K m &.6 $ ..+.O.i w 9 & u +.K O k p > : < b.W.H.c.F.F A k W w.[.xXxX",
"xXxXXX%X6.d.! M.A.E 1 t q > , $ X.+.P | , v - $ ...., T.T.% ` v.s i.j 2 u.` :.9.>.3.Y r.xXxX",
"xXxXxX6X7Xy.L U.R.R n C 1 1 q A K 0 O b w $.i y y $ L.dXP.l T.Q.` S >.^ _.*X[.f.6.Y xXxXxXxX",
"xXxXxXxX#XOX7.> 1 Z.,XT._ 1 D q < , $ A ..o.K C y > U.Q.z C.!.B.E Y T 4.=X*XxXxX6.Y xXxXxXxX",
"xXxXxXxXxX#Xq.u.~.jXsXH.` : > ; ; 1 D o.i [ M.u.< ; v.C.` v.b.R ~ U T $XoXxXxXxXxXxXxXxXxXxX",
"xXxXxXxXxXxXP p.R.L.c.h ` Q S : q F 2 = < z.R.Q.m.2 l z.2 r R :.5.U t.oXxXxXxXxXxXxXxXxXxXxX",
"xXxXxXxXxXxXxXC h k 0 C Q.fX!.S.Q 2 _ S.p.h P.I.C.E Z S 6.5.,.3.4.f.{.[.xXxXxXxXxXxXxXxXxXxX",
"xXxXxXxXxXxXxX*.L s M.i.x L.!.W.S.S c.Q.Z.< j n.x Y y.[.e.3.xXxXxXxXxXxXxXxXxXxXxXxXxXxXxXxX",
"xXxXxXxXxXxX}.XX*X7.i.E s j z.S.I._ Z & L 5.Q _ ;.{..XxXxXxXxXxXxXxXxXxXxXxXxXxXxXxXxXxXxXxX",
"xXxXxXxXxXxXxXxXXX{.;.<.Y s k j c s w.{._.<.5.1.`.oXxXxXxXxXxXxXxXxXxXxXxXxXxXxXxXxXxXxXxXxX",
"xXxXxXxXxXxXxXxXxXOX4.e. X[.1.<.5..X#Xk.xXxXxXxX[.xXxXxXxXxXxXxXxXxXxXxXxXxXxXxXxXxXxXxXxXxX"
};
