/* XPM */
static char *result[] = {
/* columns rows colors chars-per-pixel */
"42 39 176 2 ",
"   c black",
".  c #0E0E0E",
"X  c #282828",
"o  c gray16",
"O  c #2A2A2A",
"+  c gray17",
"@  c gray18",
"#  c #2F2F2F",
"$  c gray19",
"%  c #323232",
"&  c gray20",
"*  c #343434",
"=  c #353535",
"-  c #373737",
";  c gray22",
":  c #393939",
">  c #3A3A3A",
",  c gray23",
"<  c #3C3C3C",
"1  c gray24",
"2  c #3E3E3E",
"3  c #3F3F3F",
"4  c gray25",
"5  c #414141",
"6  c gray26",
"7  c #434343",
"8  c #444444",
"9  c gray27",
"0  c #464646",
"q  c gray28",
"w  c #484848",
"e  c #494949",
"r  c gray29",
"t  c #4B4B4B",
"y  c #4C4C4C",
"u  c gray30",
"i  c #4E4E4E",
"p  c gray31",
"a  c #505050",
"s  c #515151",
"d  c gray32",
"f  c gray33",
"g  c #555555",
"h  c #565656",
"j  c gray34",
"k  c #585858",
"l  c gray35",
"z  c #5A5A5A",
"x  c #5B5B5B",
"c  c gray36",
"v  c #5D5D5D",
"b  c gray37",
"n  c #5F5F5F",
"m  c #606060",
"M  c gray38",
"N  c #626262",
"B  c gray39",
"V  c #646464",
"C  c #656565",
"Z  c gray40",
"A  c #676767",
"S  c #686868",
"D  c DimGray",
"F  c #6A6A6A",
"G  c gray42",
"H  c #6C6C6C",
"J  c #6D6D6D",
"K  c gray43",
"L  c #6F6F6F",
"P  c gray44",
"I  c #717171",
"U  c #727272",
"Y  c gray45",
"T  c #747474",
"R  c gray46",
"E  c #767676",
"W  c #777777",
"Q  c gray47",
"!  c #797979",
"~  c gray48",
"^  c #7B7B7B",
"/  c #7C7C7C",
"(  c gray49",
")  c #7E7E7E",
"_  c gray50",
"`  c #808080",
"'  c #818181",
"]  c gray51",
"[  c #838383",
"{  c #848484",
"}  c gray52",
"|  c #868686",
" . c gray53",
".. c #888888",
"X. c #898989",
"o. c gray54",
"O. c #8B8B8B",
"+. c gray55",
"@. c #8D8D8D",
"#. c #8E8E8E",
"$. c gray56",
"%. c #909090",
"&. c gray57",
"*. c #929292",
"=. c #939393",
"-. c gray58",
";. c #959595",
":. c gray59",
">. c #979797",
",. c #989898",
"<. c gray60",
"1. c #9A9A9A",
"2. c #9B9B9B",
"3. c gray61",
"4. c #9D9D9D",
"5. c gray62",
"6. c #9F9F9F",
"7. c #A0A0A0",
"8. c gray63",
"9. c #A2A2A2",
"0. c gray64",
"q. c #A4A4A4",
"w. c #A5A5A5",
"e. c gray65",
"r. c #A7A7A7",
"t. c gray66",
"y. c #A9A9A9",
"u. c #AAAAAA",
"i. c gray67",
"p. c #ACACAC",
"a. c gray68",
"s. c #AEAEAE",
"d. c #AFAFAF",
"f. c gray69",
"g. c #B1B1B1",
"h. c #B2B2B2",
"j. c gray70",
"k. c #B4B4B4",
"l. c gray71",
"z. c #B6B6B6",
"x. c #B7B7B7",
"c. c gray72",
"v. c #BBBBBB",
"b. c #BCBCBC",
"n. c gray74",
"m. c gray",
"M. c gray75",
"N. c #C0C0C0",
"B. c #C1C1C1",
"V. c gray76",
"C. c #C3C3C3",
"Z. c gray77",
"A. c #C5C5C5",
"S. c #C6C6C6",
"D. c gray78",
"F. c #C8C8C8",
"G. c gray79",
"H. c #CACACA",
"J. c #CBCBCB",
"K. c gray80",
"L. c #CECECE",
"P. c gray81",
"I. c #D0D0D0",
"U. c gray82",
"Y. c #D2D2D2",
"T. c LightGray",
"R. c gray83",
"E. c #D5D5D5",
"W. c gray84",
"Q. c #D7D7D7",
"!. c gray85",
"~. c #DADADA",
"^. c gray86",
"/. c #DDDDDD",
"(. c #DFDFDF",
"). c None",
/* pixels */
").).).).).).).).).).).).).).).).).).).).).).).).).).).).).).).).).).).).).).).).).).",
").).).).).).).).).).A / ).B H F T U R ^ ~ ^ W I ~ J ).J J ).).).).).).).).).).).).).",
").).).).).).).).) R ( ` ) ^ Q Q E E W ! Q ! R E K L R T E R G F F H ).).).).).).).).",
").).).).).).).).J W ! T ~ { [ { { } [ ^ / ) ] W K L Q T U K T R E K H ).).).).).).).",
").).).).).).).k Z [ =.*.%.o.o.[ { ] ' ) ^ ) { g.N.u.o.{ ) / ( W W I Y E G ).).).).).",
").).).).).).).#.*.3.<.&.#.&.*.$. .O.7.c.D.G.Z.W.~.J.B.i.y.1.` [ [ ' ! Q Y ~ H ).).).",
").).).).$.;.:.9.5.3.4.;.;.&...O.,.V.B.Z.n.j.B.a.0.w.;.7.<.{ ( ` _ ` ] ] ! T Y H ).).",
").).).*.0.2.4.2.2.3.3.4.=.X.<.w.c.g.w.3.l.Z.E.~.I.8.1.8.&.L D F D H U I Q ~ T ! ).).",
").).3.r.0.e.q.e.5.2.5.#.) 4.i.y.=.$.6.H./.~.L.h.>.Q ` M M G H H J H G G L T ! T G ).",
").).<.y.t.t.y.y.t.7.#.' :.q.1.[ O.p.h.K.^.U.0.:.Q W W I P L L J H H H H S D J T Q ).",
").;.w.p.t.t.t.t.q.#.O.<.;.;.$.[ } ../ f.(.b.%.R ] Q P v b b c C J G G H ~ ! H G P H ",
").g.a.t.y.r.r.t.3.[ *.#.| W L I Z A ) 5.*.2 k *.:._ b y q e 8 c K J K G R *.| F H ^ ",
").-.e.e.s.s.i.r.X...o.] ^ G G G H ~ E h   R p.f.X.B G N u i u u i C Z J F ! 3.{ C W ",
").6.a.s.g.z.d.=. .^ { [ G H H H J K s % n @.F - w * , 1 3 e u y t t 4 h V I %.<.I Q ",
").{ f.x.k.z.y./ R P | ] J H G J N 0 + z b 0 3 D +.N u 8 8 r y y y u r - , n J ( [ ).",
").).<.l.j.z.p. .W ] | Y F J F s 4 o 5 a t 0 n H F c u a a u y y y t a 1 $ 1 ,.M.l.( ",
").2 Y c.k.j.x.1._ } } U F H H i q ; y y t s N u 9 y 8 3 2 e u y y u 0 2   ) Z.N.Z.9.",
").).1 :.c.h.l.h.O.] X.R H K c r p 1 w u t s s e p 8 $ > q r y y y u i & X q.S.m.B.5.",
").).. F z.z.h.x.6...+.V N P a e u r 4 u y t t y u 7 % 8 t u y u p u 6 3 ( x.v.B.C.4.",
").).).e _ g.l.h.k.3.<.8.#.Z C i y u u y y y u y y i 8 < 8 t t 0 1 t Y $.e.a.d.B.b.L ",
").).).).Z j.z.c.F.T.R.!.R.H.r.M 7 q w w e e e r 0 3 8 s s d q R *.$.6.6.<.;.j.j.j ).",
").).).).).{ 4.D.R.Y.Q.Q.!.V.b.w.} _ T Y W E W R W $.2.2.2.2.<.3.7.6.2.1.5.7.#.l ).).",
").).).).).).} n.G.B.I.e.9.x.V.g.,.:.@.@.@.@.+.*.=.%.;.>.:.2.4.3.2.2.4.5.=.` h ).).).",
").).).).).).).-.H.D.A.J.H.!.F.u.! ' ] ] ] ] ] | $.&.$.#.-.4.3.2.3.5.-.~ c c ).).).).",
").).).).).).` o.;.B.v.w.B.R.s.`  .} { { { { { [  .#.%.$.;.2.>.#.1.<.) U D y ).).).).",
").).).).).).8.e.b } b.y. .w.,.o.( [ | } } } } } { [ o.&.$.$.$.&.[ O.o.Q I ).).).).).",
").).).).).u g.T.~ ).|  .o.2.w.,.D / Q ^ ` _ _ _ _ ` ( | &.%.$.X.5.6.} L ' ).).).).).",
").).).).).% &.u.2 ).3 B o.<.2.*.-.*.@.;.;.;.;.;.;.>.-.8.t.%.4.4.9._ / _ e ).).).).).",
").).).).).).).X.).).).M v Z E R | <.3.t.e.r.e.r.w.7.8.1.@.{ T _ ( ^ 8.c ).).).).).).",
").).).).).).).).).).8 K K n M n J ( | O.O.+.+.+.O.....} ..' { { +.2.-.).).).).).).).",
").).).).).).).).).).y a K W E K K H R Q Q ' ' ' ' ] ] ] [ Q H @.3.>.).).).).).).).).",
").).).).).).).).t 0 B i l ` #.R A G G G D C Z A A A S S A F ^ Q M ).).).).).).).).).",
").).).).).).).i 0.a.F U q k H O.X.E J H I O.o. . .] ^ / ) ~ ) S ).).).).).).).).).).",
").).).).).).).: K.P.O.v B $ 7 k m ! ~ Z | $.] { [ O.W ~ ' L N ).).).).).).).).).).).",
").).).).).).).).U 8.q.O Q G # > 0 i v v B P Z ) {  .( L ).).).).).).).).).).).).).).",
").).).).).).).).% F l = a s ! B 9 w 7 j R A m m f s ).).).).).).).).).).).).).).).).",
").).).).).).).).3 - 6 6 = o > w w x A h t 9 y ).).).).).).).).).).).).).).).).).).).",
").).).).).).).@ r p 7 9 8 a s @ , 0 M g ).).).).).y ).).).).).).).).).).).).).).).).",
").).).).).).).).7 ).).).).e ).).f C S K T D e y y ).).).).).).).).).).).).).).).).)."
};
