/* XPM */
static char *result[] = {
/* columns rows colors chars-per-pixel */
"42 42 186 2 ",
"   c #111111",
".  c #202020",
"X  c #232323",
"o  c #272727",
"O  c gray16",
"+  c #2A2A2A",
"@  c gray17",
"#  c #2C2C2C",
"$  c #2D2D2D",
"%  c #2F2F2F",
"&  c gray19",
"*  c #313131",
"=  c #323232",
"-  c gray20",
";  c #343434",
":  c #353535",
">  c gray21",
",  c #373737",
"<  c gray22",
"1  c #393939",
"2  c #3A3A3A",
"3  c gray23",
"4  c #3C3C3C",
"5  c gray24",
"6  c #3E3E3E",
"7  c #3F3F3F",
"8  c gray25",
"9  c #414141",
"0  c gray26",
"q  c #434343",
"w  c #444444",
"e  c gray27",
"r  c #464646",
"t  c gray28",
"y  c #484848",
"u  c #494949",
"i  c gray29",
"p  c #4B4B4B",
"a  c #4C4C4C",
"s  c gray30",
"d  c #4E4E4E",
"f  c gray31",
"g  c #505050",
"h  c #515151",
"j  c gray32",
"k  c #535353",
"l  c gray33",
"z  c #555555",
"x  c #565656",
"c  c gray34",
"v  c #585858",
"b  c gray35",
"n  c #5A5A5A",
"m  c #5B5B5B",
"M  c gray36",
"N  c #5D5D5D",
"B  c gray37",
"V  c #5F5F5F",
"C  c #606060",
"Z  c gray38",
"A  c #626262",
"S  c gray39",
"D  c #646464",
"F  c #656565",
"G  c gray40",
"H  c #676767",
"J  c #686868",
"K  c DimGray",
"L  c #6A6A6A",
"P  c gray42",
"I  c #6C6C6C",
"U  c #6D6D6D",
"Y  c gray43",
"T  c #6F6F6F",
"R  c gray44",
"E  c #717171",
"W  c #727272",
"Q  c gray45",
"!  c #747474",
"~  c gray46",
"^  c #767676",
"/  c #777777",
"(  c gray47",
")  c #797979",
"_  c gray48",
"`  c #7B7B7B",
"'  c #7C7C7C",
"]  c gray49",
"[  c #7E7E7E",
"{  c gray50",
"}  c #808080",
"|  c #818181",
" . c gray51",
".. c #838383",
"X. c #848484",
"o. c gray52",
"O. c #868686",
"+. c gray53",
"@. c #888888",
"#. c #898989",
"$. c gray54",
"%. c #8B8B8B",
"&. c gray55",
"*. c #8D8D8D",
"=. c #8E8E8E",
"-. c gray56",
";. c #909090",
":. c gray57",
">. c #929292",
",. c #939393",
"<. c gray58",
"1. c #959595",
"2. c gray59",
"3. c #979797",
"4. c #989898",
"5. c gray60",
"6. c #9A9A9A",
"7. c #9B9B9B",
"8. c gray61",
"9. c #9D9D9D",
"0. c gray62",
"q. c #9F9F9F",
"w. c #A0A0A0",
"e. c gray63",
"r. c #A2A2A2",
"t. c gray64",
"y. c #A4A4A4",
"u. c #A5A5A5",
"i. c gray65",
"p. c #A7A7A7",
"a. c gray66",
"s. c #A9A9A9",
"d. c #AAAAAA",
"f. c gray67",
"g. c #ACACAC",
"h. c gray68",
"j. c #AEAEAE",
"k. c #AFAFAF",
"l. c gray69",
"z. c #B1B1B1",
"x. c #B2B2B2",
"c. c gray70",
"v. c #B4B4B4",
"b. c gray71",
"n. c #B6B6B6",
"m. c #B7B7B7",
"M. c gray72",
"N. c #B9B9B9",
"B. c gray73",
"V. c #BBBBBB",
"C. c #BCBCBC",
"Z. c gray74",
"A. c gray",
"S. c gray75",
"D. c #C0C0C0",
"F. c #C1C1C1",
"G. c gray76",
"H. c #C3C3C3",
"J. c gray77",
"K. c #C5C5C5",
"L. c #C6C6C6",
"P. c gray78",
"I. c #C8C8C8",
"U. c gray79",
"Y. c #CACACA",
"T. c #CBCBCB",
"R. c gray80",
"E. c #CDCDCD",
"W. c gray81",
"Q. c #D0D0D0",
"!. c gray82",
"~. c #D2D2D2",
"^. c LightGray",
"/. c gray83",
"(. c #D5D5D5",
"). c gray84",
"_. c #D7D7D7",
"`. c #D8D8D8",
"'. c gray85",
"]. c #DADADA",
"[. c gray86",
"{. c gainsboro",
"}. c #DDDDDD",
"|. c gray87",
" X c gray88",
".X c None",
/* pixels */
".X.X.X.X.X.X.X.X.X.X.X.X.X.X.X.X.X.X.X.X.X.X.X.X.X.X.X.X.X.X.X.X.X.X.X.X.X.X.X.X.X.X",
".X.X.X.X.XR .X.X...X.X>.4.^ _ z.c.x.x.x.x.x.v.a.e.2.=.+.Q P O..XC .X.X.X.X.X.X.X.X.X",
".X.X.X) T .X.X/ { ;.$.#.0.D.P._.`.`.`.'.'.`.!.P.K.D.F.n.t...] 5.>._ C x N .X.X.X.X.X",
".X.X.X_ .XF T  .] -.:.z.P./.[./.~.~.!.R.Y.P.W.E.R.F.m.m.k.y.a.*.%.&...S / E .X.X.X.X",
".X.X.X.X^ #.#.6.4.0.f.V.A.C.B.l.a.u.c.H.C.7.0.D.J.M.D.v.l.p.p.i.r.2.=.' G J Q .X.X.X",
".X.X.X.X9.7.8.9.8.9.q.w.6.$.:.u.N.U.).|.}.Y.A.E.Z.b.c.G.L.G.H.N.j.0.8.>.$.! Z .X.X.X",
".X.X.X2.9.8.8.8.7.8.7.*.X.5.A.F.).[.^.K.g.z.i.1.4.2. .o.] ! / Q ~ o.,.6.w.%.P .X.X.X",
".X=.8.d.7.7.8.8.8.8.+.o.y.b.N.F.A.s.s.D.M.k.s.;.>.;.L C S D S G K K F ` ..%.3.b .X.X",
".X.Xi.j.u.u.9.8.8.@.X.i.s.l.u.8.r.L.!.].'.R.<.&.-.=.<.1.1.1.2.%.T U P J H Y ..m .X.X",
".X.Xm.a.a.s.u.8.$.o.5.t.<.+.<.a.Q.}.).F.y.-.=.2.2.2.1.1.1.1.2.0.w.5.} R K L U ! k .X",
".Xa.M.a.a.a.p.>. .6.8.2.o.:.f.d.L.|.~.r.,.%.../ Q D H H H G K { @.1.t.3.X.Y U ( .X.X",
".Xa.m.a.p.a.p.=.$.>.+. .| ) / Q f.).p.| Z t j F I E I U U U I K H Q ) #.q.=.Y ( ( .X",
".Xz.s.x.d.d.e.| &.X. .O.{ F T | 1.~ 5 : + = ` a.r.[ s t y i r v K F A S T :._ / ' .X",
".Xc.p.k.n.z.q.| X.X.X.o.{ K ( P L g * = 2 #.a.7.! s u 9 , $ = $ 2 6 r p B Q R _ ) .X",
".Xt.x.d.v.n.a.} O.X.X.o.[ L L U D 7 - 6 S ' w + M a d d p r , : * = > u a Z D ) .X.X",
".X<.l.b.c.n.f.| { E O.X.Y P Y J 2 @ p m w & u R *.H j i s s s w 1 ; - < 8 M O.,.Q .X",
".XJ t.b.c.n.s.} E ) O.` P I U x # < p < # t I S n x p d a a a s d 7 ; ; : 1.K.K.i..X",
".X.X..m.v.v.x.;.] O.O.R L I U r * : < * 0 z N p w , 3 1 w s a a s u < . J J.A.J.M..X",
".X.Xm l.b.c.m.u.X...X.Q L U H u = ; - = t d s t , & , i p a a a p g 5   1.H.S.G.z..X",
".X.X.X} C.c.c.N.,.o.-.T L R l w = > > = u s d 2 - 5 d d d d s i p 9 f ] m.n.A.P.z..X",
".X.X.X.X0.m.x.v.h.&.@.Q K A k s 4 $ - * , u a 4 X > r q w q t h h ] 2.e.y.d.A.M.W .X",
".X.X.X.XM N.C.c.N.M.B.I.M.7.O.d i 9 5 4 7 6 y f j M S G H A ~ 9.5.0.0.6.3.a.l.n .X.X",
".X.X.X.X.X4.i.H.(.{.[.{. X(.N.%.| o.} }  . .| | ;.q.e.e.w.w.q.8.9.8.7.0.w.%.t .X.X.X",
".X.X.X.X.X.X#.J.Y.H.~.F.S.z.V.j.=.>.,.,.>.>.>.,.-.-.>.:.2.7.8.8.8.8.9.=./ n .X.X.X.X",
".X.X.X.X.X.X.Xx.W.L.T.j.s.P.I.l.%.;.-.-.-.-.-.-.;.;.=.>.9.9.5.7.0.4.! n 9 .X.X.X.X.X",
".X.X.X.X.X.X.X^ F.P.G.T.). XS.0.;.:.:.;.;.;.;.;.;.;.;.>.3.2.-.<.6.! V { S p .X.X.X.X",
".X.X.X.X.X.X.X.X) g.C.:.8.B.5./ -.*.-.:.;.>.>.>.:.;.;.;.-.-.;.X.T X.-.$.B .X.X.X.X.X",
".X.X.X.X.X.X.X.X.X.Xk.g.#.0.u.7.L W S F ~ +.#.@.%.:.;.:.:.&.) %.6.d.6.] p .X.X.X.X.X",
".X.X.X.X.X.X.X.X.X.X.Xl ^ <.5.8.5.4.%.| $.#.| | o.;.=.=.&.e.s.y.3.*.Q s .X.X.X.X.X.X",
".X.X.X.X.X.X.X.Xf b V E x U X.:.,.8.w.w.0.9.6.7.6.2.i.f.y.r.2.`  .[ d .X.X.X.X.X.X.X",
".X.X.X.X.X.X.X.X.X} { #.=.) m N Q +.$.:.<.<.<.,.;.$.&.O.+. .| O.] x .X.X.X.X.X.X.X.X",
".X.X.X.X.X.X.X.X.X.Xa ( o.5.7.5.7...] ) _ ) ' o.+.+.+.O.[ / Y b .X.X.X.X.X.X.X.X.X.X",
".X.X.X.X.X.X.X.X.Xb j k 5 _ <.0.l.h.d.8.7.0.9.w.w.w.e.0.1.9.a..X.X.X.X.X.X.X.X.X.X.X",
".X.X.X.X.X.X.X.Xz N 2 c d f E  .o.) ~ d.m.p.l.a.i.i.i.e.z.b.M.3..X.X.X.X.X.X.X.X.X.X",
".X.X.X.X.X.X.X.XH 7 2 % 6 9 d D ] %.! ) 9.O.$...{ +.W Y +...*.0..X.X.X.X.X.X.X.X.X.X",
".X.X.X.X.X.X.X.Xh 0 3 - - & , w a Z Y M R ] R ..@.%.{ } ^ S .X.X.X.X.X.X.X.X.X.X.X.X",
".X.X.X.X.X.X.X.Xr q 6 2 & > 3 0 6 w l F D R D W Q E [ U 2.` .X.X.X.X.X.X.X.X.X.X.X.X",
".X.X.X.X.X.X.X.X1 s 4 7 ; o 7 w w e 6 F b i k n M v Y ..4..X.X.X.X.X.X.X.X.X.X.X.X.X",
".X.X.X.X.X.X.X& p 9 i 4 4 w O # a u y ; - D S F D W  .W .X.X.X.X.X.X.X.X.X.X.X.X.X.X",
".X.X.X.X.X.X.X.Xk 9 = 0 h N 9 k M C R R J Z J c .X.X.X.X.X.X.X.X.X.X.X.X.X.X.X.X.X.X",
".X.X.X.X.X.X.Xd g .X.X.X.X.X.XH .X.X.X.Xk .X.X.X.X.X.X.X.X.X.X.X.X.X.X.X.X.X.X.X.X.X",
".X.X.X.X.X.X.X.X.X.X.X.X.X.X.X.X.X.X.X.X.X.X.X.X.X.X.X.X.X.X.X.X.X.X.X.X.X.X.X.X.X.X"
};
