/* XPM */
static char *result[] = {
/* columns rows colors chars-per-pixel */
"42 41 183 2 ",
"   c black",
".  c #1D1D1D",
"X  c gray13",
"o  c gray17",
"O  c #2C2C2C",
"+  c #2D2D2D",
"@  c #2F2F2F",
"#  c gray19",
"$  c #313131",
"%  c #323232",
"&  c gray20",
"*  c #343434",
"=  c #353535",
"-  c gray21",
";  c #373737",
":  c gray22",
">  c #393939",
",  c #3A3A3A",
"<  c gray23",
"1  c #3C3C3C",
"2  c gray24",
"3  c #3E3E3E",
"4  c #3F3F3F",
"5  c gray25",
"6  c #414141",
"7  c gray26",
"8  c #434343",
"9  c #444444",
"0  c gray27",
"q  c #464646",
"w  c gray28",
"e  c #484848",
"r  c #494949",
"t  c gray29",
"y  c #4B4B4B",
"u  c #4C4C4C",
"i  c gray30",
"p  c #4E4E4E",
"a  c gray31",
"s  c #505050",
"d  c #515151",
"f  c gray32",
"g  c #535353",
"h  c gray33",
"j  c #555555",
"k  c #565656",
"l  c gray34",
"z  c #585858",
"x  c gray35",
"c  c #5A5A5A",
"v  c #5B5B5B",
"b  c gray36",
"n  c #5D5D5D",
"m  c gray37",
"M  c #5F5F5F",
"N  c #606060",
"B  c gray38",
"V  c #626262",
"C  c gray39",
"Z  c #646464",
"A  c #656565",
"S  c gray40",
"D  c #676767",
"F  c #686868",
"G  c DimGray",
"H  c #6A6A6A",
"J  c gray42",
"K  c #6C6C6C",
"L  c #6D6D6D",
"P  c gray43",
"I  c #6F6F6F",
"U  c gray44",
"Y  c #717171",
"T  c #727272",
"R  c gray45",
"E  c #747474",
"W  c gray46",
"Q  c #767676",
"!  c #777777",
"~  c gray47",
"^  c #797979",
"/  c gray48",
"(  c #7B7B7B",
")  c #7C7C7C",
"_  c gray49",
"`  c #7E7E7E",
"'  c gray50",
"]  c #808080",
"[  c #818181",
"{  c gray51",
"}  c #838383",
"|  c #848484",
" . c gray52",
".. c #868686",
"X. c gray53",
"o. c #888888",
"O. c #898989",
"+. c gray54",
"@. c #8B8B8B",
"#. c gray55",
"$. c #8D8D8D",
"%. c #8E8E8E",
"&. c gray56",
"*. c #909090",
"=. c gray57",
"-. c #929292",
";. c #939393",
":. c gray58",
">. c #959595",
",. c gray59",
"<. c #979797",
"1. c #989898",
"2. c gray60",
"3. c #9A9A9A",
"4. c #9B9B9B",
"5. c gray61",
"6. c #9D9D9D",
"7. c gray62",
"8. c #9F9F9F",
"9. c #A0A0A0",
"0. c gray63",
"q. c #A2A2A2",
"w. c gray64",
"e. c #A4A4A4",
"r. c #A5A5A5",
"t. c gray65",
"y. c #A7A7A7",
"u. c gray66",
"i. c #A9A9A9",
"p. c #AAAAAA",
"a. c gray67",
"s. c #ACACAC",
"d. c gray68",
"f. c #AEAEAE",
"g. c #AFAFAF",
"h. c gray69",
"j. c #B1B1B1",
"k. c #B2B2B2",
"l. c gray70",
"z. c #B4B4B4",
"x. c gray71",
"c. c #B6B6B6",
"v. c #B7B7B7",
"b. c gray72",
"n. c #B9B9B9",
"m. c gray73",
"M. c #BBBBBB",
"N. c #BCBCBC",
"B. c gray74",
"V. c gray",
"C. c gray75",
"Z. c #C0C0C0",
"A. c #C1C1C1",
"S. c gray76",
"D. c #C3C3C3",
"F. c #C5C5C5",
"G. c #C6C6C6",
"H. c gray78",
"J. c #C8C8C8",
"K. c gray79",
"L. c #CACACA",
"P. c #CBCBCB",
"I. c gray80",
"U. c #CDCDCD",
"Y. c #CECECE",
"T. c gray81",
"R. c #D0D0D0",
"E. c gray82",
"W. c #D2D2D2",
"Q. c LightGray",
"!. c gray83",
"~. c #D5D5D5",
"^. c #D7D7D7",
"/. c #D8D8D8",
"(. c gray85",
"). c #DADADA",
"_. c gray86",
"`. c gainsboro",
"'. c #DDDDDD",
"]. c gray87",
"[. c #DFDFDF",
"{. c gray88",
"}. c None",
/* pixels */
"}.}.}.}.}.}.}.}.}.}.}.}.}.}.}.}.}.}.}.}.}.}.}.}.}.}. .a.a.7.2.}.}.}.}.}.}.}.}.}.}.}.",
"}.}.}.}.}.}.}.}.}.}.}.}.}.}.}.}.c }.}.}.}.}.}./ :.u.!.{.).'.].K.c.O.}.}.}.}.}.}.}.}.",
"}.}.}.}.}.}.}.}.}.}.}.}./ %.=. .-.;.1.8.8.8.1.d.a.D.=.C.[.W.Y._.U.m.e.W }.}.}.}.}.}.",
"}.}.}.}.}.}.}.}.}.' -.-.7.w.3.-.;.;.;.#.O.*.-.g.P.j.1.N.!.d.d.T.U.N.v.t.5.}.}.}.}.}.",
"}.}.}.}.}.}.}.-.y.1.8.8.5.7.<.&.&.@.X.5.n.S.r.2.0.z.F.V.M.S.j.<.y.n.z.i.7.7._ }.}.}.",
"}.}.}.}.}.*.7.e.7.6.4.6.6.3.*.%.<.j.C.~.[.[.J.N.Z.S.0.s.J.(.P.m.c.z.h.u.5.6.<.~ }.}.",
"}.}.}.}.2.y.6.6.5.5.5.4.=.O.,.B.Z.Q.`.Q.J.g.V.n.s.0.<.%.} { ! [ ' ! [ :.1.7.7.3.Y }.",
"}.}.&.f.5.4.3.4.5.4.8.*.` =.c.b.B.H.b.,.2.h.E.R.~.Y.i.Q S G F S D G H D Y @.} o.O.M ",
"}.}.1.6.r.e.r.0.4.7.2.| #.i.u.z.q...$.8.D._.)./.C.a.{ S P L K L K L L K F C Z H +.I ",
"}.2.c.u.i.i.i.i.9.*.X.,.7.q.o.O.O.;.<.*.x.[.!.l.| Q ^ J L J J J K X.:.>.6.=.W H G R ",
"}.q.d.u.y.y.u.i.e. .$.2.#.{ } } ` W D E 9.C.@.e = 4 9 k L I P P I L H _ &.;.9.+.H J ",
"}.6.i.y.s.a.y.y.:...&.{ }  .../ G G ~ / Q s o L +...N w l v c v z V I H A L ' :.+.L ",
"}.&.u.y.d.z.k.y.#.{ ....} } / G L J T f - s ,.b.a./ a t q 0 0 0 w p g j J H C ' ,.L ",
"}.J 4.p.r.k.z.j.2.} { ` I J J K K P D q 4 } %.v : + & , 3 2 2 2 - 0 8 u i y b `  .A ",
"}.}./ e.d.B.A.G.5.' ] D K K K K L D i $ N C 1 r ( L V x y p p p 0 , + 2 0 i y Y U I ",
"}.}.c ;.b.U.W.S.;.[ U H L K K J P n e 1 a i s D ! I k f u i y y s i r - @ 0 a k J { ",
"}.}.}./ 6.m.d.F O./ P R ] P J L G t e , i y i p w y 9 0 q q u u 9 w a u , * 1 C ' | ",
"}.}.}.}.x N ..%.T P T o.} L K K c u 1 % q i u y i 7 $ % $ 9 i u 5 e w i 6 . C o.$.D ",
"}.}.}.}.h G y.7. .{ ( } { L L L y a 4 $ 3 s i i p : = , 1 q s a d t , 1 M ;.>...) }.",
"}.}.}.}.}.V T F W *.s.8.' K A S s 0 < o + 1 t r t < + X     % 9 1 v U 6.Y.W.z.( }.}.",
"}.}.}.}.}.}.}.Z P C | 2.9.>. .X.( S C j u r k x z z y G @.$.C y [ M.U.~.(.`.B.~ }.}.",
"}.}.}.}.}.}.}.}.}.A b V ` 9.0.q.e.e.0.0.6.%.@.#.$.$.i.U.)./.Y.I.K.C.~.L./._.N.~ 5 }.",
"}.}.}.}.}.}.}.}.}.}.W P x V @.0.c.Z.A.I.P.L.L.K.T.!.W.!.W./.^.(.k.b.n.P.A.d.} h n y ",
"}.}.}.}.}.}.}.}.}.}.D .._ F x Z o.t.M.A.E.T.T.T.T.U.G.F.F.Y.$.B.g.J.g.n.>.l b E Z l ",
"}.}.}.}.}.}.}.}.}.}.}.}.W  ._ } G H { [ 0.x.k.l.l.m.B.M.W.f.w.I.~.j.#.{ @...[ ~ ( }.",
"}.}.}.}.}.}.}.}.}.}.}.}.}.Z @.:.;.*.` H ! ) _ %.%.=.=.%.j.i.;.4.s.( X.<.i.1.! ( }.}.",
"}.}.}.}.}.}.}.}.}.}.}.}.}.p B +.2.6.4.1.<.,.,.,.-.%.%.+.,.D.u.C.a.l.w.5.#.L ..' }.}.",
"}.}.}.}.}.}.}.}.}.}.}.}.}.c C x ' $.,.,.8.7.6.6.4.<.6.a.j.i.N.D.u.-.) ) ~ } :.g }.}.",
"}.}.}.}.}.}.}.}.}.}.}.}.}.b  .] m b m } %.&.:.:.:.;.,.>.%.&.{ ( ) ' | `  .0.Z }.}.}.",
"}.}.}.}.}.}.}.}.}.}.}.}.}.4 F 1.1.=.5.<.^ / [ {  .o.........X.+.o.Q [ +.7.q.J }.}.}.",
"}.}.}.}.}.}.}.}.}.}.}.}.}.s p j >.1.s.l.s.0.<.,.3.5.6.6.6.7.2.:.:.$.<.8.#.R }.}.}.}.",
"}.}.}.}.}.}.}.}.}.}.}.}., P I 9 m ` { ) ` -.g.c.l.k.w.r.e.w.r.,.&.-.o.W }.}.}.}.}.}.",
"}.}.}.}.}.}.}.}.}.}.}.@ 7 z D > & i s M ^ L A &.) { ( o.} Y R ^ J m }.}.}.}.}.}.}.}.",
"}.}.}.}.}.}.}.}.}.}.}.5 1 t 7 + ; , 9 r r v m k Y L ] ' ] ` ,.] }.}.}.}.}.}.}.}.}.}.",
"}.}.}.}.}.}.}.}.}.}.}.3 i > 3 = # = ; - 5 4 A L m n S D A d }.}.}.}.}.}.}.}.}.}.}.}.",
"}.}.}.}.}.}.}.}.}.}.2 7 7 w 2 : O + @ & % @ : 6 e d i }.}.}.}.}.}.}.}.}.}.}.}.}.}.}.",
"}.}.}.}.}.}.}.}.}.q a e w < 8 w k 0 + < 7 8 4 8 8 }.}.}.}.}.}.}.}.}.}.}.}.}.}.}.}.}.",
"}.}.}.}.}.}.}.}.r u , : : % - 5 6 1 k S H z i }.}.}.}.}.}.}.}.}.}.}.}.}.}.}.}.}.}.}.",
"}.}.}.}.}.}.}.}.5 }.}.}.}.}.}.}.}.}.}.}.}.}.}.}.}.}.}.}.}.}.}.}.}.}.}.}.}.}.}.}.}.}.",
"}.}.}.}.}.}.}.}.}.}.}.}.}.}.}.}.}.}.}.}.}.}.}.}.}.}.}.}.}.}.}.}.}.}.}.}.}.}.}.}.}.}.",
"}.}.}.}.}.}.}.}.}.}.}.}.}.}.}.}.}.}.}.}.}.}.}.}.}.}.}.}.}.}.}.}.}.}.}.}.}.}.}.}.}.}."
};
