/* XPM */
static char *result[] = {
/* columns rows colors chars-per-pixel */
"48 46 91 1 ",
"  c #0B1C28",
". c #0B1D29",
"X c #0B1D2A",
"o c #0B1E2A",
"O c #0C1E2A",
"+ c #0C1E2B",
"@ c #0C1F2B",
"# c #0D1F2B",
"$ c #0F1F2B",
"% c #111F2B",
"& c #0B202C",
"* c #0C202C",
"= c #0D202C",
"- c #0C212C",
"; c #0C212D",
": c #0E202C",
"> c #0F202C",
", c #0E212D",
"< c #0C222E",
"1 c #0D222E",
"2 c #0C232F",
"3 c #0D232F",
"4 c #0D242F",
"5 c #10202C",
"6 c #11202C",
"7 c #0C2430",
"8 c #0D2430",
"9 c #0D2530",
"0 c #0C2531",
"q c #0D2531",
"w c #0F2430",
"e c #0E2531",
"r c #0D2631",
"t c #0C2632",
"y c #0D2632",
"u c #0C2732",
"i c #0C2733",
"p c #0E2632",
"a c #0E2733",
"s c #0C2834",
"d c #0D2834",
"f c #0C2935",
"g c #0E2834",
"h c #0F2834",
"j c #0E2934",
"k c #0F2934",
"l c #0E2935",
"z c #0F2935",
"x c #0E2A35",
"c c #0C2A36",
"v c #0C2B37",
"b c #0E2A36",
"n c #0F2A36",
"m c #0F2B36",
"M c #0E2B37",
"N c #0F2B37",
"B c #0E2C37",
"V c #0F2C37",
"C c #0C2D39",
"Z c #0E2C38",
"A c #0F2C38",
"S c #0F2D39",
"D c #0F2E39",
"F c #0F2E3A",
"G c #0F2F3B",
"H c #102834",
"J c #102C38",
"K c #102D39",
"L c #102E39",
"P c #102E3A",
"I c #112E3A",
"U c #112F3A",
"Y c #102F3B",
"T c #112F3B",
"R c #0F303C",
"E c #0F313D",
"W c #0F323E",
"Q c #10303B",
"! c #10303C",
"~ c #11303C",
"^ c #10313D",
"/ c #10323E",
"( c #10333F",
") c #103440",
"_ c #103541",
"` c #133440",
"' c #133541",
"] c #113743",
"[ c #133642",
"{ c #123743",
"} c #143945",
/* pixels */
"5555555555555:*5%$@@****************************",
"555555555555:=*#wHh8@******************@+@******",
"555555555>55=**@pJJp@******************333******",
"555555555=:55=*5,<1;*o@**************X;S^F1@****",
"55555555>*:55>::=@@o3Tn@************@z~nlg;@****",
"555555555*:555>****o8'Po************oP'3 @******",
"555555555*:55:*******3<**************13*********",
"5555555>=**:5>:****@Oo@**************@O*********",
"5555555:&**=565=***<3;**************************",
"5555555:&*:5555=**@lP1@*************************",
"555:>555:*:5:::***ON^3@**@..@*******************",
"55>*=>>5>*:>*&****@gA<@*@4aa4@******************",
"5:*****************;;***oL}}Lo******************",
"5:&****************@@***@pKKp@******************",
"5>=******==*********@@@**@..@*******************",
"55>=****=5:*********@@@@************************",
"565=*****:=*****@O.dRGRD<@**********************",
">>>********@@***3r8BWE/G2@**********************",
"***************@l^^l@*;-************************",
"*********@aSSpOO3aa3O@@@************************",
"*********@aFFl27;OO@****************************",
"************@uCCt@******************************",
"***********@@<00<*******************************",
"***;;********@@@@*****************@*************",
"**;7<*******************************************",
"***;;***;tit7;@**************@@2ifvf;@**********",
"********;0it7<;<;***********<227ifcs;@**********",
"*************<77<**********@7ff7@***************",
"*************;;;;****2727<**;22;********<7272@O@",
"*********************2222;***@@*********;2222qee",
"*******************************************@1mKJ",
"*@OOOO***************************************383",
"@qbbbj;@**************************;<<;*******@@@",
"OM_)_W3O**************************<77<**********",
"*2yryq;****************************;;***********",
"*@OOOO***********@@*****************************",
"****************-;;-****************************",
"***************@pJJp@***************************",
"***@@@*********@8zz8@o@*************************",
"***<<<***********@@@*31*************************",
"*@1S!S1@***********o8'PX.+*****@OOO@************",
"*@<lVl<@***********@3Tz;Kk@***@qblxg;@*oO@******",
"***@+@***************o.8[Uo***@g!Y!F1@*34<******",
"**********************@;93@OOO*<3333*o8`{R2O****",
"************************oo<xZx<+@@@@*@1IQM<@****",
"*************************O4(](4O*******ooO******"
};
